<?xml version="1.0" encoding="UTF-8"?>
<svg width="400px" height="300px" viewBox="0 0 400 300" version="1.1" xmlns="http://www.w3.org/2000/svg">
    <defs>
        <linearGradient id="goldGradient" x1="0%" y1="0%" x2="100%" y2="100%">
            <stop offset="0%" stop-color="#FFD700" />
            <stop offset="50%" stop-color="#FFC107" />
            <stop offset="100%" stop-color="#FF8C00" />
        </linearGradient>
        <linearGradient id="metalGradient" x1="0%" y1="0%" x2="100%" y2="100%">
            <stop offset="0%" stop-color="#778899" />
            <stop offset="50%" stop-color="#A9A9A9" />
            <stop offset="100%" stop-color="#2F4F4F" />
        </linearGradient>
        <filter id="shadow" x="-10%" y="-10%" width="120%" height="120%">
            <feGaussianBlur in="SourceAlpha" stdDeviation="2" />
            <feOffset dx="1" dy="1" result="offsetblur" />
            <feComponentTransfer>
                <feFuncA type="linear" slope="0.5" />
            </feComponentTransfer>
            <feMerge>
                <feMergeNode />
                <feMergeNode in="SourceGraphic" />
            </feMerge>
        </filter>
    </defs>
    
    <!-- Vault background -->
    <rect x="50" y="50" width="300" height="200" rx="10" fill="#333" />
    <rect x="60" y="60" width="280" height="180" rx="5" fill="url(#metalGradient)" />
    
    <!-- Vault door frame -->
    <rect x="70" y="70" width="260" height="160" rx="5" fill="#444" />
    
    <!-- Vault interior -->
    <rect x="80" y="80" width="240" height="140" fill="#222" />
    
    <!-- Vault security wheel -->
    <circle cx="320" cy="100" r="20" fill="url(#metalGradient)" stroke="#333" stroke-width="2" />
    <circle cx="320" cy="100" r="15" fill="none" stroke="#222" stroke-width="1" />
    <circle cx="320" cy="100" r="10" fill="none" stroke="#222" stroke-width="1" />
    <circle cx="320" cy="100" r="5" fill="#222" />
    
    <!-- Gold bars stacks -->
    <!-- Stack 1 -->
    <rect x="100" y="170" width="60" height="15" rx="2" fill="url(#goldGradient)" filter="url(#shadow)" />
    <rect x="105" y="155" width="50" height="15" rx="2" fill="url(#goldGradient)" filter="url(#shadow)" />
    <rect x="110" y="140" width="40" height="15" rx="2" fill="url(#goldGradient)" filter="url(#shadow)" />
    
    <!-- Stack 2 -->
    <rect x="180" y="170" width="60" height="15" rx="2" fill="url(#goldGradient)" filter="url(#shadow)" />
    <rect x="185" y="155" width="50" height="15" rx="2" fill="url(#goldGradient)" filter="url(#shadow)" />
    <rect x="190" y="140" width="40" height="15" rx="2" fill="url(#goldGradient)" filter="url(#shadow)" />
    <rect x="195" y="125" width="30" height="15" rx="2" fill="url(#goldGradient)" filter="url(#shadow)" />
    
    <!-- Stack 3 -->
    <rect x="260" y="170" width="40" height="15" rx="2" fill="url(#goldGradient)" filter="url(#shadow)" />
    <rect x="265" y="155" width="30" height="15" rx="2" fill="url(#goldGradient)" filter="url(#shadow)" />
    
    <!-- Scattered coins -->
    <circle cx="120" y="120" r="8" fill="url(#goldGradient)" filter="url(#shadow)" />
    <circle cx="140" y="110" r="6" fill="url(#goldGradient)" filter="url(#shadow)" />
    <circle cx="160" y="115" r="7" fill="url(#goldGradient)" filter="url(#shadow)" />
    <circle cx="250" y="125" r="5" fill="url(#goldGradient)" filter="url(#shadow)" />
    <circle cx="270" y="115" r="6" fill="url(#goldGradient)" filter="url(#shadow)" />
    
    <!-- Vault lock detail -->
    <line x1="320" y1="80" x2="320" y2="85" stroke="#333" stroke-width="2" />
    <line x1="320" y1="115" x2="320" y2="120" stroke="#333" stroke-width="2" />
    <line x1="300" y1="100" x2="305" y2="100" stroke="#333" stroke-width="2" />
    <line x1="335" y1="100" x2="340" y2="100" stroke="#333" stroke-width="2" />
</svg> 